<svg width="44" height="43" viewBox="0 0 44 43" fill="none" xmlns="http://www.w3.org/2000/svg">
<rect width="44" height="43" fill="#E5E5E5"/>
<rect width="5715" height="1808" transform="translate(-1035 -1253)" fill="#F7F5F9"/>
<g filter="url(#filter0_d_0_1)">
<rect x="4.5" y="0.5" width="35" height="33.1053" rx="4.5" stroke="#292929" shape-rendering="crispEdges"/>
</g>
<path d="M20.0993 18.641C19.7147 18.8691 19.3588 19.0788 19.003 19.2885C18.3847 19.6527 17.7737 20.0205 17.1518 20.3774C17.0296 20.4473 16.9865 20.5319 16.9793 20.6643C16.9326 21.3964 16.8787 22.1321 16.8283 22.8642C16.7996 23.2946 16.4941 23.5889 16.0879 23.5742C15.6925 23.5595 15.4013 23.2284 15.4157 22.798C15.4301 22.4632 15.4553 22.1248 15.4768 21.79C15.484 21.6576 15.4912 21.5251 15.4984 21.3633C15.3906 21.4258 15.3079 21.47 15.2252 21.5178C14.6825 21.8378 14.1397 22.1616 13.5933 22.4816C13.313 22.6435 12.9895 22.603 12.7594 22.3897C12.5473 22.1947 12.4539 21.8489 12.5905 21.584C12.666 21.4369 12.7954 21.2934 12.9355 21.2051C13.4927 20.8556 14.0606 20.5319 14.6249 20.1971C14.6753 20.1677 14.7256 20.1346 14.7939 20.0941C14.3697 19.8807 13.9672 19.6821 13.5646 19.4798C13.2123 19.2995 13.0578 18.9537 13.1584 18.5969C13.2806 18.1738 13.7335 17.9604 14.1397 18.1554C14.8011 18.4718 15.4553 18.8029 16.1095 19.134C16.2353 19.2002 16.3323 19.1965 16.4545 19.1229C17.3747 18.5711 18.2985 18.0303 19.2187 17.4859C19.269 17.4564 19.3193 17.4233 19.3948 17.3755C19.1935 17.2578 19.0102 17.1474 18.8269 17.0407C18.0397 16.5735 17.2489 16.1137 16.4653 15.6391C16.3287 15.5545 16.2245 15.5619 16.0879 15.6318C15.4517 15.9592 14.8119 16.2756 14.1684 16.5883C13.7874 16.7759 13.3777 16.6398 13.2015 16.2756C13.0182 15.904 13.1656 15.4846 13.5502 15.286C13.9025 15.102 14.2583 14.9291 14.6106 14.7489C14.6645 14.7231 14.7148 14.6937 14.7867 14.6532C14.2439 14.3332 13.7227 14.0242 13.2015 13.7151C13.1045 13.6563 13.0038 13.6011 12.9068 13.5386C12.5473 13.3178 12.4287 12.8948 12.6228 12.5416C12.8205 12.1848 13.2483 12.0707 13.6185 12.2841C14.2008 12.6225 14.7795 12.9684 15.3582 13.3105C15.3942 13.3325 15.4301 13.3509 15.4984 13.3914C15.4768 13.0346 15.4589 12.7108 15.4409 12.3834C15.4301 12.2289 15.4157 12.0781 15.4121 11.9236C15.4049 11.5189 15.6925 11.1952 16.0735 11.1768C16.4725 11.1584 16.7924 11.4453 16.8212 11.8574C16.8751 12.6078 16.929 13.362 16.9757 14.1124C16.9829 14.2375 17.0296 14.3074 17.1375 14.3663C18.0684 14.9107 18.9922 15.4589 19.9196 16.007C19.9699 16.0364 20.0202 16.0659 20.0957 16.1063C20.0993 16.0254 20.1065 15.9665 20.1065 15.9114C20.1065 14.8151 20.1029 13.7151 20.1101 12.6189C20.1101 12.4864 20.067 12.4092 19.9591 12.3356C19.3517 11.9199 18.7442 11.5042 18.1439 11.0811C17.6874 10.7611 17.7234 10.0879 18.205 9.83405C18.4602 9.70161 18.7154 9.72368 18.9527 9.88555C19.2762 10.1063 19.5997 10.327 19.9232 10.5477C19.9699 10.5808 20.0202 10.6139 20.1065 10.6691C20.1065 10.5735 20.1065 10.5073 20.1065 10.4447C20.1065 9.78254 20.1029 9.12037 20.1065 8.45819C20.1101 7.95788 20.4803 7.62679 20.9332 7.70404C21.2495 7.75555 21.4904 8.02778 21.5155 8.35886C21.5191 8.40669 21.5155 8.45819 21.5155 8.50601C21.5155 14.4178 21.5155 20.3259 21.5155 26.2376C21.5155 26.6349 21.3466 26.9145 21.0375 27.0175C20.5666 27.1794 20.1065 26.8373 20.1029 26.3149C20.0993 25.6454 20.1029 24.9795 20.1029 24.31C20.1029 24.2438 20.1029 24.1812 20.1029 24.0708C19.8513 24.2438 19.632 24.3909 19.4164 24.5381C19.2618 24.6447 19.1108 24.7514 18.9527 24.8544C18.5896 25.0972 18.1619 25.0236 17.939 24.6815C17.709 24.332 17.806 23.8943 18.1727 23.6404C18.7729 23.2247 19.3732 22.8127 19.9699 22.3933C20.031 22.3492 20.0957 22.2535 20.0957 22.1836C20.1029 21.0432 20.1029 19.9028 20.0993 18.7624C20.1101 18.7366 20.1065 18.7072 20.0993 18.641Z" fill="#292929"/>
<path d="M31.1595 12.619C30.9474 12.8765 30.7137 13.1156 30.5268 13.3879C30.2536 13.7925 29.9697 14.2045 29.7648 14.6497C29.4161 15.4038 29.6102 16.1101 30.2501 16.6289C30.8324 17.1034 31.5153 17.3609 32.2198 17.5706C32.3025 17.5964 32.3888 17.6184 32.4211 17.6295C31.8496 17.887 31.2529 18.1482 30.6634 18.4278C30.4873 18.5124 30.3255 18.6411 30.1746 18.7699C29.621 19.2371 29.4485 19.8478 29.6749 20.5504C29.8619 21.139 30.2141 21.6246 30.5987 22.0881C30.7641 22.2868 30.9438 22.4744 31.1487 22.6988C30.8935 22.6473 30.6778 22.5958 30.4585 22.559C29.8906 22.4634 29.3227 22.3861 28.744 22.456C27.9208 22.559 27.3925 23.0777 27.2774 23.9165C27.1696 24.7111 27.3062 25.48 27.5003 26.2415C27.5111 26.2819 27.5183 26.3224 27.5398 26.4033C27.3421 26.2231 27.1768 26.0649 27.0043 25.9177C26.5657 25.5425 26.1128 25.193 25.588 24.9576C24.7649 24.5897 24.0496 24.792 23.5212 25.5388C23.1402 26.0759 22.9066 26.6829 22.7197 27.312C22.7017 27.3672 22.6873 27.426 22.6514 27.4738C22.6514 26.2562 22.6514 25.0422 22.6514 23.8098C24.5744 23.7436 26.156 22.9674 27.3565 21.4296C28.2587 20.2708 28.6901 18.9354 28.6505 17.4529C28.5643 14.0684 25.7965 11.4197 22.6586 11.4381C22.6586 10.1653 22.6586 8.89242 22.6586 7.5791C22.6873 7.65636 22.7053 7.7005 22.7161 7.74465C22.9389 8.46568 23.2013 9.16833 23.6434 9.78268C24.1574 10.4927 24.844 10.6877 25.642 10.3455C26.289 10.0696 26.8245 9.63185 27.3206 9.13522C27.3889 9.06532 27.4572 8.9991 27.5255 8.92921C27.5326 8.92185 27.547 8.92185 27.5614 8.91817C27.4967 9.28605 27.4068 9.65024 27.3781 10.0181C27.3421 10.4927 27.3134 10.9746 27.3601 11.4455C27.4392 12.2438 27.9748 12.7514 28.7584 12.8618C29.5024 12.9648 30.2249 12.8434 30.9438 12.6558C31.0085 12.6374 31.0696 12.6227 31.1343 12.608C31.1379 12.608 31.1451 12.6116 31.1595 12.619Z" fill="#292929"/>
<path d="M22.655 22.5333C22.655 19.2666 22.655 15.9961 22.655 12.6963C24.3624 12.7772 25.7427 13.4799 26.6521 14.955C27.752 16.7392 27.7268 18.5749 26.6233 20.3555C25.5594 22.0624 23.701 22.6069 22.655 22.5333Z" fill="#292929"/>
<defs>
<filter id="filter0_d_0_1" x="0" y="0" width="44" height="42.1055" filterUnits="userSpaceOnUse" color-interpolation-filters="sRGB">
<feFlood flood-opacity="0" result="BackgroundImageFix"/>
<feColorMatrix in="SourceAlpha" type="matrix" values="0 0 0 0 0 0 0 0 0 0 0 0 0 0 0 0 0 0 127 0" result="hardAlpha"/>
<feOffset dy="4"/>
<feGaussianBlur stdDeviation="2"/>
<feComposite in2="hardAlpha" operator="out"/>
<feColorMatrix type="matrix" values="0 0 0 0 0 0 0 0 0 0 0 0 0 0 0 0 0 0 0.25 0"/>
<feBlend mode="normal" in2="BackgroundImageFix" result="effect1_dropShadow_0_1"/>
<feBlend mode="normal" in="SourceGraphic" in2="effect1_dropShadow_0_1" result="shape"/>
</filter>
</defs>
</svg>
